<?xml version="1.0" encoding="utf-8"?>
<!-- Generator: Adobe Illustrator 26.0.3, SVG Export Plug-In . SVG Version: 6.00 Build 0)  -->
<svg version="1.1" id="Layer_1" xmlns="http://www.w3.org/2000/svg" xmlns:xlink="http://www.w3.org/1999/xlink" x="0px" y="0px"
	 viewBox="0 0 7.21 234.68" style="enable-background:new 0 0 7.21 234.68;" xml:space="preserve">
<style type="text/css">
	.st0{fill:#424242;}
</style>
<rect x="1.06" y="1.06" transform="matrix(0.7071 -0.7071 0.7071 0.7071 -1.4925 3.6033)" class="st0" width="5.1" height="5.1"/>
<rect x="1.06" y="6.83" transform="matrix(0.7071 -0.7071 0.7071 0.7071 -5.5762 5.2949)" class="st0" width="5.1" height="5.1"/>
<rect x="1.06" y="12.61" transform="matrix(0.7071 -0.7071 0.7071 0.7071 -9.6599 6.9863)" class="st0" width="5.1" height="5.1"/>
<rect x="1.09" y="18.41" transform="matrix(0.7071 -0.7071 0.7071 0.7071 -13.7436 8.6778)" class="st0" width="5.03" height="5.03"/>
<rect x="1.13" y="24.24" transform="matrix(0.7071 -0.7071 0.7071 0.7071 -17.8273 10.3694)" class="st0" width="4.94" height="4.94"/>
<rect x="1.18" y="30.06" transform="matrix(0.7071 -0.7071 0.7071 0.7071 -21.9113 12.0613)" class="st0" width="4.85" height="4.85"/>
<rect x="1.24" y="35.89" transform="matrix(0.7071 -0.7071 0.7071 0.7071 -25.9947 13.7524)" class="st0" width="4.73" height="4.73"/>
<rect x="1.29" y="41.72" transform="matrix(0.7071 -0.7071 0.7071 0.7071 -30.0784 15.4439)" class="st0" width="4.62" height="4.62"/>
<rect x="1.35" y="47.55" transform="matrix(0.7071 -0.7071 0.7071 0.7071 -34.1615 17.1348)" class="st0" width="4.51" height="4.51"/>
<rect x="1.41" y="53.38" transform="matrix(0.7071 -0.7071 0.7071 0.7071 -38.2465 18.8277)" class="st0" width="4.39" height="4.39"/>
<rect x="1.46" y="59.22" transform="matrix(0.7071 -0.7071 0.7071 0.7071 -42.3294 20.5184)" class="st0" width="4.28" height="4.28"/>
<rect x="1.52" y="65.05" transform="matrix(0.7071 -0.7071 0.7071 0.7071 -46.4132 22.21)" class="st0" width="4.17" height="4.17"/>
<rect x="1.59" y="70.89" transform="matrix(0.7071 -0.7071 0.7071 0.7071 -50.4967 23.9014)" class="st0" width="4.03" height="4.03"/>
<rect x="1.64" y="76.72" transform="matrix(0.7071 -0.7071 0.7071 0.7071 -54.5817 25.5942)" class="st0" width="3.92" height="3.92"/>
<rect x="1.71" y="82.57" transform="matrix(0.7071 -0.7071 0.7071 0.7071 -58.6643 27.2846)" class="st0" width="3.78" height="3.78"/>
<rect x="1.77" y="88.4" transform="matrix(0.7071 -0.7071 0.7071 0.7071 -62.7481 28.9761)" class="st0" width="3.67" height="3.67"/>
<rect x="1.84" y="94.24" transform="matrix(0.7071 -0.7071 0.7071 0.7071 -66.8332 30.6692)" class="st0" width="3.53" height="3.53"/>
<rect x="1.9" y="100.08" transform="matrix(0.7071 -0.7071 0.7071 0.7071 -70.9155 32.3592)" class="st0" width="3.4" height="3.4"/>
<rect x="1.97" y="105.93" transform="matrix(0.7071 -0.7071 0.7071 0.7071 -74.9992 34.0507)" class="st0" width="3.26" height="3.26"/>
<rect x="2.03" y="111.76" transform="matrix(0.7071 -0.7071 0.7071 0.7071 -79.0828 35.7422)" class="st0" width="3.15" height="3.15"/>
<rect x="2.1" y="117.6" transform="matrix(0.7071 -0.7071 0.7071 0.7071 -83.1686 37.436)" class="st0" width="3.01" height="3.01"/>
<rect x="2.18" y="123.46" transform="matrix(0.7071 -0.7071 0.7071 0.7071 -87.2503 39.1253)" class="st0" width="2.85" height="2.85"/>
<rect x="2.24" y="129.3" transform="matrix(0.7071 -0.7071 0.7071 0.7071 -91.334 40.8168)" class="st0" width="2.72" height="2.72"/>
<rect x="2.31" y="135.14" transform="matrix(0.7071 -0.7071 0.7071 0.7071 -95.4176 42.5082)" class="st0" width="2.58" height="2.58"/>
<rect x="2.38" y="140.99" transform="matrix(0.7071 -0.7071 0.7071 0.7071 -99.5019 44.2004)" class="st0" width="2.45" height="2.45"/>
<rect x="2.45" y="146.83" transform="matrix(0.7071 -0.7071 0.7071 0.7071 -103.5885 45.8949)" class="st0" width="2.31" height="2.31"/>
<rect x="2.53" y="152.68" transform="matrix(0.7071 -0.7071 0.7071 0.7071 -107.6688 47.5829)" class="st0" width="2.15" height="2.15"/>
<rect x="2.6" y="158.53" transform="matrix(0.7071 -0.7071 0.7071 0.7071 -111.7523 49.2743)" class="st0" width="2.02" height="2.02"/>
<rect x="2.66" y="164.37" transform="matrix(0.7071 -0.7071 0.7071 0.7071 -115.8408 50.9708)" class="st0" width="1.88" height="1.88"/>
<rect x="2.73" y="170.21" transform="matrix(0.7071 -0.7071 0.7071 0.7071 -119.9199 52.6575)" class="st0" width="1.74" height="1.74"/>
<rect x="2.81" y="176.07" transform="matrix(0.7071 -0.7071 0.7071 0.7071 -124.0046 54.3501)" class="st0" width="1.59" height="1.59"/>
<rect x="2.88" y="181.91" transform="matrix(0.7071 -0.7071 0.7071 0.7071 -128.094 56.0474)" class="st0" width="1.45" height="1.45"/>
<rect x="2.96" y="187.77" transform="matrix(0.7071 -0.7071 0.7071 0.7071 -132.1698 57.7308)" class="st0" width="1.29" height="1.29"/>
<rect x="3.04" y="193.62" transform="matrix(0.7071 -0.7071 0.7071 0.7071 -136.2549 59.4238)" class="st0" width="1.13" height="1.13"/>
<rect x="3.11" y="199.46" transform="matrix(0.7071 -0.7071 0.7071 0.7071 -140.3384 61.1151)" class="st0" width="1" height="1"/>
<rect x="3.18" y="205.32" transform="matrix(0.707 -0.7072 0.7072 0.707 -144.4351 62.8201)" class="st0" width="0.84" height="0.84"/>
<rect x="3.25" y="211.16" transform="matrix(0.7071 -0.7071 0.7071 0.7071 -148.5032 64.4955)" class="st0" width="0.7" height="0.7"/>
<rect x="3.33" y="217.01" transform="matrix(0.7071 -0.7071 0.7071 0.7071 -152.5896 66.1897)" class="st0" width="0.54" height="0.54"/>
<rect x="3.4" y="222.86" transform="matrix(0.7071 -0.7071 0.7071 0.7071 -156.6732 67.8812)" class="st0" width="0.41" height="0.41"/>
<rect x="3.48" y="228.71" transform="matrix(0.7071 -0.7071 0.7071 0.7071 -160.7655 69.5816)" class="st0" width="0.25" height="0.25"/>
<rect x="3.56" y="234.57" transform="matrix(0.7065 -0.7077 0.7077 0.7065 -164.9773 71.4053)" class="st0" width="0.09" height="0.09"/>
</svg>
