<?xml version="1.0" encoding="utf-8"?>
<!-- Generator: Adobe Illustrator 26.0.3, SVG Export Plug-In . SVG Version: 6.00 Build 0)  -->
<svg version="1.1" id="Layer_1" xmlns="http://www.w3.org/2000/svg" xmlns:xlink="http://www.w3.org/1999/xlink" x="0px" y="0px"
	 viewBox="0 0 51 51" style="enable-background:new 0 0 51 51;" xml:space="preserve">
<g>
	<path d="M3.99,50.5c0-1.61,0-3.22,0-4.83c0-1.04,0.42-1.44,1.53-1.44c4.05,0,8.09,0,12.14,0c0.2,0,0.4,0,0.68,0
		c0-0.69,0-1.34,0-1.98c0-1.17,0.38-1.54,1.63-1.54c3.86,0,7.72,0,11.57,0c1.17,0,1.56,0.37,1.57,1.5c0,1.46,0,2.93,0,4.47
		c0.22,0,0.42,0,0.62,0c4.05,0,8.09,0,12.14,0c1.2,0,1.58,0.35,1.58,1.48c0,0.78-0.01,1.56-0.02,2.34
		C32.94,50.5,18.46,50.5,3.99,50.5z"/>
	<path d="M30.39,27.63c0.94-1.94,1.82-3.78,2.71-5.63c0.69-1.43,1.38-2.87,2.07-4.3c0.24-0.5,0.58-0.87,1.22-1
		c0.15,0.38,0.3,0.76,0.44,1.14c0.47,1.24,0.93,2.48,1.4,3.72c0.1,0.26,0.12,0.45-0.08,0.7c-0.74,0.93-0.58,2.24,0.32,3.01
		c0.9,0.77,2.24,0.79,3.15,0.05c0.96-0.78,1.15-2.06,0.4-3.03c-0.21-0.27-0.2-0.47-0.09-0.75c0.61-1.6,1.21-3.21,1.82-4.83
		c0.66,0.11,1,0.51,1.24,1.02c0.99,2.06,1.98,4.11,2.97,6.16c0.8,1.66,1.6,3.31,2.38,4.97c0.33,0.7,0.16,1.38-0.41,1.86
		c-0.52,0.44-1.33,0.55-1.91,0.16c-0.33-0.22-0.62-0.57-0.79-0.92c-0.75-1.48-1.45-2.98-2.17-4.47c-0.08-0.16-0.16-0.31-0.34-0.45
		c0,0.23,0,0.47,0,0.7c0,5.99,0,11.98,0,17.97c0,1.1-0.51,1.85-1.41,2.09c-1.24,0.33-2.46-0.47-2.49-1.7
		c-0.04-2.16-0.02-4.33-0.02-6.49c0-1.42,0-2.83,0-4.25c0-0.13-0.02-0.25-0.03-0.41c-0.46,0-0.9,0-1.42,0c0,0.24,0,0.48,0,0.72
		c0,3.37,0,6.74,0,10.11c0,1.12-0.6,1.88-1.57,2.05c-1.2,0.21-2.28-0.54-2.31-1.7c-0.05-2.16-0.03-4.33-0.03-6.49
		c0-4.07,0-8.14,0-12.21c0-0.12-0.02-0.25-0.12-0.4c-0.43,0.89-0.86,1.78-1.29,2.67c-0.36,0.75-0.72,1.51-1.09,2.26
		c-0.55,1.12-1.36,1.41-2.61,0.9c0,0.19,0,0.36,0,0.53c0,1.99,0.02,3.97,0,5.96c-0.01,1.4-1.32,2.29-2.63,1.84
		c-0.8-0.27-1.27-0.93-1.28-1.82c-0.01-1.4,0-2.8,0-4.2c0-2.07,0-4.13,0-6.2c0-0.18,0-0.35,0-0.57c-0.49,0-0.93,0-1.44,0
		c0,0.19,0,0.36,0,0.53c0,3.37,0,6.74,0,10.11c0,0.23,0,0.46-0.04,0.68c-0.19,1.01-1.02,1.64-2.07,1.57
		c-0.99-0.06-1.77-0.81-1.79-1.81c-0.03-1.42-0.01-2.83-0.01-4.25c0-1.74,0-3.48,0-5.22c0-0.11,0-0.21,0-0.36
		c-0.28,0.19-0.5,0.38-0.75,0.48c-0.84,0.34-1.74-0.04-2.19-0.93c-0.56-1.13-1.1-2.27-1.65-3.41c-0.26-0.55-0.53-1.09-0.85-1.76
		c-0.03,0.25-0.05,0.37-0.05,0.5c0,5.08,0,10.16,0,15.23c0,1.19,0.01,2.38-0.03,3.56c-0.03,0.82-0.63,1.45-1.44,1.64
		c-0.8,0.19-1.71-0.1-2.09-0.79c-0.23-0.41-0.34-0.93-0.34-1.39c-0.03-3.35-0.02-6.71-0.02-10.06c0-0.19,0-0.38,0-0.61
		c-0.49,0-0.92,0-1.43,0c0,0.2,0,0.39,0,0.58c0,3.43,0,6.87-0.01,10.3c0,1.19-0.76,1.98-1.89,2.01c-1.01,0.02-1.89-0.61-1.96-1.56
		c-0.09-1.25-0.07-2.5-0.07-3.76c-0.01-5.06,0-10.12-0.01-15.19c0-0.1-0.01-0.19-0.02-0.4c-0.11,0.19-0.18,0.29-0.23,0.39
		c-0.76,1.57-1.51,3.13-2.26,4.7c-0.29,0.61-0.76,1-1.49,1.05c-0.63,0.04-1.14-0.2-1.49-0.7c-0.39-0.56-0.33-1.13-0.05-1.71
		c1.15-2.36,2.28-4.73,3.42-7.09c0.62-1.29,1.23-2.57,1.85-3.86c0.31-0.65,0.61-0.89,1.26-1c0.52,1.37,1.03,2.74,1.55,4.11
		c0.03,0.09,0.06,0.19,0.1,0.28c0.25,0.49,0.26,0.9-0.08,1.42c-0.62,0.93-0.28,2.16,0.64,2.84c0.91,0.67,2.28,0.6,3.12-0.16
		c0.82-0.74,0.98-2.01,0.32-2.9c-0.22-0.3-0.22-0.52-0.1-0.83c0.57-1.48,1.12-2.97,1.67-4.45c0.04-0.1,0.09-0.2,0.15-0.32
		c0.64,0.11,0.98,0.5,1.22,1.02c1.06,2.22,2.13,4.44,3.19,6.65c0.63,1.31,1.27,2.62,1.99,3.93c0.01-0.12,0.02-0.23,0.02-0.35
		c0-3.97-0.01-7.94,0.01-11.91c0-0.39-0.13-0.58-0.5-0.73c-0.99-0.41-1.97-0.83-2.93-1.31c-0.31-0.15-0.65-0.44-0.75-0.74
		c-0.95-2.65-1.86-5.3-2.75-7.97c-0.23-0.7,0.16-1.43,0.85-1.76c0.69-0.34,1.52-0.21,2,0.37c0.19,0.22,0.32,0.5,0.41,0.77
		c0.75,2.13,1.47,4.26,2.23,6.38c0.08,0.23,0.3,0.51,0.53,0.57c1.27,0.38,1.95,1.18,2.29,2.4c0.36,1.31,0.95,2.57,1.4,3.87
		c0.06,0.17,0.01,0.44-0.1,0.6c-0.73,0.99-0.61,2.26,0.31,3.06c0.89,0.77,2.28,0.77,3.19,0.01c0.92-0.78,1.08-2.04,0.35-3
		c-0.17-0.23-0.2-0.4-0.1-0.66c0.65-1.71,1.28-3.43,1.94-5.14c0.08-0.2,0.28-0.44,0.48-0.5c1.34-0.39,1.98-1.25,2.33-2.53
		c0.47-1.76,1.16-3.47,1.77-5.19c0.33-0.92,1.15-1.36,2.03-1.14c0.99,0.26,1.46,1.12,1.13,2.11c-0.44,1.32-0.9,2.62-1.35,3.94
		c-0.4,1.16-0.81,2.31-1.19,3.48c-0.19,0.57-0.53,0.95-1.12,1.19c-0.96,0.39-1.9,0.82-2.84,1.26c-0.16,0.07-0.33,0.29-0.34,0.45
		c-0.02,4.82-0.02,9.64-0.02,14.45C30.33,27.46,30.35,27.49,30.39,27.63z"/>
	<path d="M21.87,5.65c0.05-1.99,1.78-3.6,3.84-3.57c2.1,0.03,3.83,1.7,3.8,3.67c-0.03,1.99-1.84,3.66-3.88,3.59
		C23.47,9.26,21.82,7.64,21.87,5.65z"/>
	<path d="M40.06,8.67c2.1-0.01,3.86,1.65,3.83,3.62c-0.03,2-1.76,3.64-3.85,3.63c-2.09-0.01-3.81-1.67-3.8-3.66
		C36.26,10.29,37.97,8.68,40.06,8.67z"/>
	<path d="M14.72,9.26c0.16,1.94-1.46,3.62-3.64,3.77c-2.05,0.14-3.83-1.38-3.96-3.47C7,7.68,8.47,5.91,10.79,5.81
		C12.88,5.72,14.66,7.27,14.72,9.26z"/>
	<path d="M37.95,16.63c1.41,0,2.79,0,4.23,0c-0.03,0.13-0.05,0.25-0.09,0.36c-0.49,1.33-1,2.66-1.48,3.99
		c-0.1,0.26-0.24,0.34-0.52,0.32c-0.25-0.02-0.44,0.01-0.54-0.29c-0.49-1.38-1.02-2.75-1.53-4.13
		C37.98,16.82,37.97,16.74,37.95,16.63z"/>
	<path d="M27.84,10.08c-0.58,1.54-1.13,3.02-1.71,4.49c-0.04,0.1-0.33,0.17-0.49,0.16c-0.15,0-0.38-0.1-0.42-0.21
		c-0.57-1.46-1.11-2.92-1.68-4.44C24.97,10.08,26.36,10.08,27.84,10.08z"/>
	<path d="M8.79,13.78c1.44,0,2.83,0,4.28,0c-0.48,1.29-0.95,2.54-1.42,3.79c-0.06,0.17-0.14,0.33-0.18,0.51
		c-0.07,0.31-0.25,0.38-0.58,0.39c-0.34,0.01-0.44-0.13-0.53-0.38c-0.47-1.29-0.95-2.57-1.43-3.85C8.89,14.1,8.85,13.96,8.79,13.78z
		"/>
</g>
</svg>
