<?xml version="1.0" encoding="utf-8"?>
<!-- Generator: Adobe Illustrator 26.0.3, SVG Export Plug-In . SVG Version: 6.00 Build 0)  -->
<svg version="1.1" id="Layer_1" xmlns="http://www.w3.org/2000/svg" xmlns:xlink="http://www.w3.org/1999/xlink" x="0px" y="0px"
	 viewBox="0 0 1484.6 188.1" style="enable-background:new 0 0 1484.6 188.1;" xml:space="preserve">
<style type="text/css">
	.st0{fill:#FFFFFF;}
	.st1{fill:#4F4F50;}
	.st2{fill:#EBEBEB;}
	.st3{fill:#AA0122;}
	.st4{fill:#3997D7;}
	.st5{fill:#E7D720;}
	.st6{fill:#171D1E;}
</style>
<g>
	<path class="st0" d="M238.3,175.6c-6.8,4.4-13.7,5.3-19.8,5.3c-5.4,0-12.9-0.7-19.5-5.4c-11.2-7.8-12.3-20.2-12.3-26.5
		c0-9.9,1.9-20.9,9.5-29.8c7.6-8.9,19-13.4,31.1-13.4c10.3,0,15.8,3.2,18.9,5.7l-2.5,20.6c-5.9-7.9-13-8.5-16-8.5
		c-4.9,0-11.9,1.6-16.2,7.5c-3.3,4.5-4.2,10.2-4.2,14.7c0,3.6,0.5,10.3,5.9,14.3c2.3,1.8,5.9,3,9.9,3c7.4,0,13.7-4.1,17.7-7.7
		L238.3,175.6z"/>
	<path class="st0" d="M319.9,107.8l-8.7,71.1h-19.9l6.6-54h-23.6l-6.6,54h-19.9l8.7-71.1H319.9z"/>
	<path class="st0" d="M392.5,114.6c4.8,4.7,9,12.2,9,24.2c0,17.4-8.1,27.7-15,33.3c-8.5,6.9-18.1,8.8-26.9,8.8
		c-12.2,0-20.3-3.9-25.4-8.8c-4.8-4.7-9-12.2-9-24.2c0-17.4,8.1-27.7,15-33.3c8.5-6.9,18.1-8.8,26.9-8.8
		C379.3,105.7,387.4,109.6,392.5,114.6z M375.1,157.8c3-3.2,5.9-8.8,5.9-17.9c0-3.5-0.5-8.5-4-12.4c-2.1-2.3-5.9-4.8-11.6-4.8
		c-5.8,0-10.8,2.6-13.9,6c-3,3.2-5.9,8.8-5.9,17.9c0,3.5,0.5,8.5,4,12.4c2.1,2.3,5.9,4.8,11.6,4.8C367,163.8,372,161.2,375.1,157.8z
		"/>
	<path class="st0" d="M415.5,107.8h29.9c4.6,0,13.6,0.2,19.1,7.5c2.1,2.8,3.9,7.2,3.9,13.2c0,8.6-3.2,14.4-6.6,18.2
		c-6.8,7.6-15.7,8.7-22,8.7h-10.3l-2.8,23.5h-19.9L415.5,107.8z M431.5,139.7h5.7c2.3,0,6.2-0.3,8.5-2.8c1.5-1.7,2.2-4.2,2.2-6.2
		c0-1.8-0.6-3.6-1.5-4.8c-1.6-2.1-4.4-2.5-7.2-2.5h-5.7L431.5,139.7z"/>
	<path class="st0" d="M488.4,124.8h-15.6l2.1-17.1h51.2l-2.1,17.1h-15.6l-6.6,54h-19.9L488.4,124.8z"/>
	<path class="st0" d="M552.4,107.8l-5.3,42.6l32.4-42.6h19.9l-8.7,71.1h-19.2l5.3-42.6l-32.4,42.6h-19.9l8.7-71.1H552.4z"/>
	<path class="st0" d="M645.8,107.8c4.5,0,11.1,0.2,15.6,4.8c2.1,2.1,4.2,5.6,4.2,10.9c0,6.6-2.7,11-6.4,13.8c-2.5,2-5.6,3.1-6.5,3.5
		v0.2c3.1,0.7,6.5,2.4,8.7,4.8c2,2.1,4.1,5.8,4.1,11.3c0,6.4-2.4,11.2-6,14.8c-2.7,2.7-8.4,7.1-19.7,7.1h-36.3l8.7-71.1H645.8z
		 M634,164.6c2.7,0,5.6-0.1,8-1.5c2.1-1.2,3.6-3.3,3.6-6.6c0-2.9-1.4-4.4-2.3-5.1c-1.8-1.3-4.7-1.4-7.4-1.4h-8.9l-1.8,14.6H634z
		 M636.9,135.8c1.6,0,4.8-0.2,6.9-1.5c2.7-1.7,3-4.3,3-6.1c0-1.7-0.5-3.7-2.3-4.9c-1.8-1.2-4.8-1.3-5.9-1.3h-8.3l-1.7,13.8H636.9z"
		/>
	<path class="st0" d="M681,107.8h19.9l-3.1,25.6h24.2l3.1-25.6H745l-8.7,71.1h-19.9l3.5-28.4h-24.2l-3.5,28.4h-19.9L681,107.8z"/>
	<path class="st0" d="M757.7,107.8h42.6l-2.1,17.1h-22.7l-1.2,9.9h20.6l-1.9,15.6h-20.6l-1.3,11.4h22.7l-2.1,17.1H749L757.7,107.8z"
		/>
	<path class="st0" d="M832.1,112.3c2.6-1.5,5.2-2.7,9.3-4.1c5.6-1.8,9.7-2.5,15-2.5c4.6,0,12.6,0.4,18.5,4.9
		c2.8,2.1,6.8,6.3,6.8,13.4c0,5.7-2.3,9.8-5.5,12.9c-3,2.9-6.3,4.4-8.1,5l-0.1,0.3c2,0.7,5.1,2,7.2,4.2c3.5,3.5,4,7.8,4,10.4
		c0,6.4-2.4,13.7-9.8,18.7c-7.3,5-16.5,5.5-20.8,5.5c-5.2,0-11.7-0.6-18.1-4.1c-0.9-0.5-4.2-2.3-9.1-6.5l9.8-13.2
		c1.4,1.5,3.6,3.3,6.6,5.1c3.7,2,7.3,3,10.8,3c2.8,0,5.5-0.7,7.4-2.1c1.5-1.2,2.9-3.1,2.9-6c0-6.5-6.6-7.1-10.6-7.1H837l1.7-14.2
		H850c4.1,0,7.7-1,9.6-2.6c1.4-1.2,2.1-2.8,2.1-5.1c0-2.2-1-3.9-2.7-5.1c-2.1-1.5-5.2-1.6-6.8-1.6c-2.6,0-5.7,0.5-8.9,1.7
		c-2,0.8-4.1,1.8-6,3.1L832.1,112.3z"/>
	<path class="st0" d="M912.9,107.8H937l16.5,71.1h-20.9l-2.4-12.3h-24.2l-5.7,12.3h-21.5L912.9,107.8z M911.7,150.9H928l-5.2-26.2
		L911.7,150.9z"/>
	<path class="st0" d="M984.2,137.6l25.1-29.8h23.3l-31.3,34.9l23.2,36.1h-24l-17.8-30.6l-3.8,30.6h-19.9l8.7-71.1h19.9L984.2,137.6z
		"/>
	<path class="st0" d="M1057.2,107.8h24.2l16.5,71.1H1077l-2.4-12.3h-24.2l-5.7,12.3h-21.5L1057.2,107.8z M1056.1,150.9h16.2
		l-5.2-26.2L1056.1,150.9z"/>
	<path class="st0" d="M1112.4,107.8h29.9c4.6,0,13.6,0.2,19.1,7.5c2.1,2.8,3.9,7.2,3.9,13.2c0,8.6-3.2,14.4-6.6,18.2
		c-6.8,7.6-15.7,8.7-22,8.7h-10.3l-2.8,23.5h-19.9L1112.4,107.8z M1128.3,139.7h5.7c2.3,0,6.2-0.3,8.5-2.8c1.5-1.7,2.2-4.2,2.2-6.2
		c0-1.8-0.6-3.6-1.5-4.8c-1.6-2.1-4.4-2.5-7.2-2.5h-5.7L1128.3,139.7z"/>
	<path class="st0" d="M1240.8,107.8l-8.7,71.1h-19.9l6.6-54h-23.6l-6.6,54h-19.9l8.7-71.1H1240.8z"/>
	<path class="st0" d="M1271.7,107.8h24.2l16.5,71.1h-20.9l-2.4-12.3h-24.2l-5.7,12.3h-21.5L1271.7,107.8z M1270.6,150.9h16.2
		l-5.2-26.2L1270.6,150.9z"/>
	<path class="st0" d="M1334.7,124.8H1319l2.1-17.1h51.2l-2.1,17.1h-15.6l-6.6,54h-19.9L1334.7,124.8z"/>
	<path class="st0" d="M1387.3,124.8h-15.6l2.1-17.1h51.2l-2.1,17.1h-15.6l-6.6,54h-19.9L1387.3,124.8z"/>
	<path class="st0" d="M1440.8,152.1c-2.5-0.8-5.5-2.1-7.6-3.9c-2.8-2.3-6.3-6.8-6.3-14.6c0-7.5,2.9-15,9-20
		c6.5-5.3,13.6-5.9,18.8-5.9h29.9l-8.7,71.1H1456l2.9-24.2h-1.8l-17.5,24.2h-21.3L1440.8,152.1z M1462.8,123.4h-5.5
		c-2.4,0-6.1,0.3-8.5,2.4c-2.3,2-2.6,4.8-2.6,7.1c0,1.4,0.1,3.5,1.5,5.1c1.9,2.1,5.2,2.4,7.5,2.4h5.5L1462.8,123.4z"/>
</g>
<g>
	<path class="st1" d="M0,9.5C0.1,6.3,0,3.2,0.1,0c48.8,0.1,97.5-0.1,146.3,0.1c0,51.5,0,102.9,0,154.4c-0.1,4-0.5,8.4-3.2,11.5
		c-4.3,4.3-10.4,6.4-16.3,6.4c-10.6-0.1-21.2,0-31.8,0c-4-0.1-8,0.7-11.8,2.1c-3.5,1.3-6.9,3.7-8.5,7.2c-1,2-1,4.4-1.6,6.5
		c-0.9-2-0.7-4.2-1.6-6.2c-1.7-4.1-5.8-6.8-10-8.1c-6.1-2.1-12.7-1.4-19.1-1.6c-7.5-0.1-15,0-22.5,0c-6,0.2-12.1-2-16.5-6
		c-3-3.1-3.4-7.8-3.6-11.9C0.1,106.1,0,57.8,0,9.5"/>
	<path class="st0" d="M0.8,0.8c48.3,0,96.6-0.1,144.9,0c0,49.3,0,98.6,0,147.9c0,3.7,0.2,7.5-0.5,11.2c-0.5,2.4-1.5,4.9-3.4,6.5
		c-4.4,3.7-10.3,5.3-16,5.2c-11.1-0.3-22.3-0.1-33.4,0.1c-5.2,0.4-10.5,1.8-14.6,5.1c-2.2,1.8-3.7,4.4-4.4,7.1
		c-1-3.5-3.3-6.7-6.5-8.5c-4.5-2.6-9.8-3.7-14.9-3.7c-8.3-0.1-16.6-0.2-24.8-0.1c-5.4,0.1-11,0.6-16.1-1.5c-2.8-1.2-5.7-2.7-7.6-5.2
		c-2.6-3.9-2.5-8.8-2.5-13.3C0.8,101.3,0.8,51,0.8,0.8"/>
	<path class="st2" d="M73.3,4.2c22.7,0.1,45.4-0.1,68.2,0c1.2-0.2,1.1,1.1,1.1,1.8c0,48.5-0.1,97,0,145.5c0.1,4.4-0.1,9.5-3.5,12.7
		c-5.3,3.9-12.1,4.6-18.5,4.6c-8.9,0.1-17.7-0.7-26.6-0.5c-7.6,0.2-16.6,2.2-20.7,9.3c0-10.1,0-20.3,0-30.4
		c-0.1-7.9,0.1-15.8-0.1-23.7l0-0.3c0.2-8.9,0.1-17.8,0.1-26.6c0-22.8,0-45.5,0-68.3C73.1,20.3,73.1,12.2,73.3,4.2"/>
	<path class="st3" d="M121.1,17.2c2.1-0.5,4.2-1.6,5.9-2.9c0.5,1.6,0.4,3.3,0.4,4.9c1.3-0.8,2.5-1.8,3.6-2.8c0.2,2.6,0.8,5,1.5,7.5
		c-0.3,1.7-1.6,3-2,4.6c0.2,2.3,1.3,4.6,1.2,6.9c0.2,2.7-0.8,5.4-0.8,8.1c0.9,3.6,4.5,6,4.7,9.8c0.2,3.4,0.4,6.8,0.2,10.2
		c-0.2,2.9-0.8,5.9-0.4,8.8c0.3,4.8,1.5,9.6,0.8,14.4c-0.2,3.4-1.6,6.8-0.5,10.1c1.6,4.5,2.8,9.4,1.9,14.2c-0.2,1.4-1.4,2.3-2.4,3.1
		c0.2,3.2-0.8,6.3-1.5,9.3c0.5,1.6,1.7,3,1.7,4.7c0,2.7-0.6,5.4-0.3,8.1c1,3.2,3.1,6.4,2.3,9.9c-0.5,2.2-1.2,5.1-3.7,5.8
		c-2.7,0.4-5.5-0.1-8.2-0.2c-1,0.7-2.1,1.6-3.4,1.5c-1.4,0.1-2.3-1.1-3.4-1.7c-2.1,1.2-4.4,1.9-6.7,2.5c-0.3-1.5,1-3,0.4-4.5
		c-1,0.1-1.9,0.3-2.9,0.5c0.1-2,1.5-3.6,2.6-5.2c-1-0.1-2.4,0.5-3.2-0.5c1-1.4,2.4-2.4,3.6-3.6c-0.4-0.7-1.3-0.9-1.9-1.4
		c0-1,1.2-1.2,1.9-1.8c1.9-1.4,4.4-2,6.6-1.1c2.6,1.3,2.9,4.4,4.7,6.4c-0.2-4.8-4-8.3-7.4-11.2c-1.4-1.1-1.7-2.9-2.2-4.6
		c-3.5,1.4-7.8,3.3-8.7,7.4c-0.8,4.6,0.9,9.2,0.8,13.9c-0.5,2-2.1,4.2-4.3,4.4c-1.9,0.3-3.8,0-5.8,0c-1.2,0.3-2.3,0.9-3.6,1
		c-2-0.1-3.5-1.5-5.3-2.3c-1.7,0.4-2.7,2.2-4.5,2.2c-1.6,0-3.2,0.3-4.6,1.1c-0.7-2.4,0.6-4.4,1.6-6.5c-1,0.2-2.2,1.7-3,0.8
		c0.3-2.1,1.9-3.8,2.8-5.7c-0.8-0.4-2.2,0-2.5-1.2c0.8-1.7,2.7-2.6,4.2-3.7c-1.1-0.1-2.1-0.3-3.2-0.5c1.7-3.1,5.9-5.6,9.3-3.9
		c2.3,1.1,3,3.8,4.3,5.8c1.3-5.3,0.3-11.1,2.3-16.3c1.1-3,2-6.1,4-8.7c1-1.4,2.2-2.6,2.8-4.2c-0.9-3.3-2.7-6.3-2.9-9.7
		c-0.3-5.4,1.6-10.6,2.9-15.7c-0.9,2.4-2.3,4.7-4.1,6.5c-1.2,0.7-2.5,1.2-3.6,2c-0.2-0.8-0.4-1.6-0.6-2.4c-0.9,0.7-1.8,1.4-2.7,2.1
		c-0.3-1.3-0.3-2.6-0.2-3.9c-0.5,0.2-1.4,0.6-1.9,0.8c0-1.1-0.1-2.3-0.9-3.2c0-2,1-4,2.2-5.6c1.4-1.5,4-1.1,5.3-2.7
		c-2.2,0-4.7-0.3-6.7,1c-0.6-0.3-1.1-0.5-1.7-0.8c-1.4,0.7-2.5,1.9-3.5,3c-1-0.6-0.9-1.8-1.1-2.7c-0.7,0.3-1.5,0.6-2.2,1
		c-0.1-0.8-0.2-1.6-0.2-2.3c-0.6,0.2-1.2,0.4-1.8,0.6c0.1-1.3,0.7-2.4,1.5-3.3c-0.4,0-1.2-0.1-1.6-0.1c1.4-2.4,0.5-5.6,2.3-7.8
		c1.7-1.4,3.9-2,6-2.7c3.5-1,7.8,0.7,10.6-2.1c1.5-1.2,3.4-1.9,4.7-3.4c1.2-1.5,2.7-2.7,3.9-4.1c1.1-2.8,2.5-5.7,2.9-8.8
		c-0.4-2.5-0.6-5.5-2.9-7.1c-1.9-2.2-5.8-1.1-7-4.1c-2.8-0.9-5.8-2.5-7-5.4c0.2-0.6,0.6-1.6,1.5-1.2c1.2,1.3,2.4,2.9,4.3,3.2
		c2.7,0.2,5.3-0.9,8-0.6c1.7,0,3.1,0.8,4.6,1.4c0.4-2.7-3.5-3.4-5.3-2.2c-0.2-0.2-0.8-0.5-1-0.7c-0.5,0.2-1,0.4-1.4,0.6
		c-0.9-1.7-2.6-2.6-4.1-3.6c-0.2-2.4-1.9-5-0.8-7.3c2.8-0.5,5.7,0.7,8.6,0.4c3.5,0.4,5.8-3.4,9.3-3.1
		C116.5,16.5,118.8,17.2,121.1,17.2"/>
	<path class="st0" d="M110.3,20.6c1.5,0.1,3.1,0,4.6-0.2c0.7,1.1,1.4,2.1,2.1,3.2c-0.2,0.4-0.7,0.5-1,0.7c-0.5-1-0.9-2.2-1.8-3
		c-1,0-2,0.2-3,0.3C110.9,21.2,110.6,20.9,110.3,20.6"/>
	<path class="st2" d="M99.2,22.3c0.6-0.8,2.1,0,1.5,0.9C100.1,24,98.5,23.2,99.2,22.3"/>
	<path class="st0" d="M112.1,23.1c0.4-0.7,2-0.1,1.7,0.8c0.1,1-1.4,1.2-2.1,0.7C111.6,24,111.7,23.5,112.1,23.1"/>
	<path class="st2" d="M123.2,27.1c-1.1-2.6,1.9-4.2,4-4.7c-0.1,1.2-0.3,2.3-0.5,3.5c-1.1-0.2-2.1-0.4-3.2-0.5
		c0.5,2.1,1.8,4.5,0.4,6.5c-1.3,1.7-2.7,3.2-4.1,4.9C120.2,33.3,124.3,30.9,123.2,27.1"/>
	<path class="st0" d="M127,34.8c0.3-0.8,1-1.3,1.6-1.8C128.5,33.9,128.3,35.9,127,34.8"/>
	<path class="st2" d="M101.9,34.8c1.1-0.3,2.3-0.4,3.4-0.4C104.4,35.4,103,35.4,101.9,34.8"/>
	<path class="st0" d="M119.7,40.6c2-1.2,3-3.1,3.6-5.2c0,1.4,0.2,3.1-0.9,4.1C121.7,40.2,120.7,41.4,119.7,40.6"/>
	<path class="st0" d="M126.4,38.2c0.5-0.9,1-1.8,2.1-2.1C128.5,37.3,127.7,38.2,126.4,38.2"/>
	<path class="st0" d="M113.6,39.2c1.6,0.2,3.2,0.1,4.8-0.1C117,39.7,114.6,41.2,113.6,39.2"/>
	<path class="st0" d="M126.1,41c0.8-0.6,1.7-1.2,2.5-1.7C128.8,40.9,127.4,41.9,126.1,41"/>
	<path class="st0" d="M127,43.3c0.8-0.5,1.6,0.8,1,1.4C127.3,45.2,126.4,43.9,127,43.3"/>
	<path class="st4" d="M3.9,52.1c23.1,0,46.2,0,69.4,0c0,8,0,16,0,24c-23.1,0-46.3,0-69.4,0C4.1,68.1,4,60.1,3.9,52.1"/>
	<path class="st4" d="M4,4.3c23.1,0,46.2,0,69.4,0c0,8,0,16,0,24c-23.1,0-46.3,0-69.4,0C4.1,20.4,4,12.3,4,4.3"/>
	<path class="st0" d="M111.5,60c0.4-2.7-0.5-5.8,1.3-8.1C112.4,54.6,113.7,57.9,111.5,60"/>
	<path class="st0" d="M103.3,61.4c1.3-2.7,4.1-4.2,5.5-6.8c-0.3,1.2-0.4,2.6-1.3,3.6C106.3,59.5,104.8,60.5,103.3,61.4"/>
	<path class="st0" d="M131.6,72.5c-1.7-4.6-1.4-10,1.3-14.1c0.3,2.1-0.5,4-1,5.9C131.7,67,132.3,69.8,131.6,72.5"/>
	<path class="st0" d="M102.5,64.3c1.8-1.7,3.6-3.5,6.1-4C107,62.1,104.8,63.4,102.5,64.3"/>
	<path class="st0" d="M128.6,64.4c0.7,2.9-1.3,5.7-0.3,8.6c0.5,2.4,2.8,3.9,3.1,6.3c-1.6-2.4-4.3-4.3-4.6-7.4
		C126.3,69.2,128.1,66.9,128.6,64.4"/>
	<path class="st0" d="M108.8,73.5c1.3-1.2,2.7-2.3,4.3-3C113.2,72.9,110.6,73.4,108.8,73.5"/>
	<path class="st0" d="M104.7,73C104.7,72.6,104.7,72.6,104.7,73"/>
	<path class="st0" d="M107.8,72.7C108.2,72.7,108.2,72.7,107.8,72.7"/>
	<path class="st0" d="M100.5,76.3c0.7-1.8,2.3-2.8,4.1-3.3C103.9,74.6,102.2,75.9,100.5,76.3"/>
	<path class="st0" d="M104,76.2c1.2-1.2,1.8-3.4,3.8-3.5C106.7,73.9,105.9,76.1,104,76.2"/>
	<path class="st0" d="M93.7,76.8c0.4-2.1,2.7-2.6,4.4-3.1C97.1,75.3,95.5,76.4,93.7,76.8"/>
	<path class="st0" d="M97.4,76.6c-0.2-2.1,2.4-2.4,3.9-3.1C100.5,75.1,99,76.1,97.4,76.6"/>
	<path class="st2" d="M101.7,82.1c-0.8-0.3-0.9-2-0.1-2.3C102.6,80,102.7,81.9,101.7,82.1"/>
	<path class="st0" d="M103.2,96.4c0.2,2.1-0.9,4.2-1.1,6.3C101.2,100.6,102,98.2,103.2,96.4"/>
	<path class="st2" d="M103.8,106.6c-0.7-2.1,0.4-4.3,1.7-6C105.1,102.7,104,104.6,103.8,106.6"/>
	<path class="st0" d="M105.1,109.9c1.2-3.4,4.8-5.1,6.7-8.1C111.6,105.7,108.3,108.4,105.1,109.9"/>
	<path class="st0" d="M103.2,115.1c1.4-2.9,4.6-4.1,7.2-5.6C108.3,111.7,105.7,113.3,103.2,115.1"/>
	<path class="st0" d="M124.6,120.7c-1.5-0.9-0.6-2.8,0.1-3.9C124.8,118.1,124.7,119.4,124.6,120.7"/>
	<path class="st0" d="M100.3,122c0.2-1.4,1.1-2.4,2.3-3C101.9,120.1,101.1,121.1,100.3,122"/>
	<path class="st2" d="M121.5,119c1.1,1.2,0.9,3-0.2,4.1C121.2,121.7,121.3,120.4,121.5,119"/>
	<path class="st0" d="M119.4,120.1c0.2,1.2,0,2.5-0.7,3.5c-0.2-0.1-0.5-0.2-0.7-0.3C118.4,122.3,118.9,121.2,119.4,120.1"/>
	<path class="st0" d="M115.3,125.1c0.2-1.4,0.6-2.8,1.5-3.8C116.8,122.7,116.8,124.3,115.3,125.1"/>
	<path class="st2" d="M109.6,126.1c1.2-1.3,2.6-2.5,4.2-3.4C113.3,124.6,111.2,125.2,109.6,126.1"/>
	<path class="st2" d="M82.2,136.2c1-0.1,2-0.1,3-0.2c0,0.2-0.1,0.7-0.1,0.9C84.1,136.8,83.1,136.8,82.2,136.2"/>
	<path class="st2" d="M115.6,138.9c0.6-1,1.9,0.2,1.2,1C116.2,140.9,114.9,139.7,115.6,138.9"/>
	<path class="st2" d="M80.9,141.5c0.4-1.7,2.8-0.6,4-0.8C84.4,142.5,82.2,141.8,80.9,141.5"/>
	<path class="st0" d="M114.2,142c0.5-0.6,2.3-0.1,1.6,0.8C115.3,143.5,113.4,142.9,114.2,142"/>
	<path class="st0" d="M81.2,145.6c0.2-1.5,1.9-1.1,3-1.3C83.7,145.6,82.3,145.4,81.2,145.6"/>
	<path class="st0" d="M114.4,146.1c0.6-0.3,1.3-0.3,1.9,0.1c-0.4,1-2.5,1.8-2.7,0.3C113.9,146.3,114.2,146.2,114.4,146.1"/>
	<path class="st4" d="M3.9,147.3c23.1,0,46.3,0,69.4,0c0,10.1,0,20.3,0,30.4c-3.2-4.3-7.9-7.6-13.3-8.3c-13.4-1.8-27,0-40.5-1.1
		c-4.8-0.5-10.3-1.6-13.4-5.6C2.8,158.2,4.4,152.4,3.9,147.3"/>
	<path class="st0" d="M82.4,148.7c0.5-0.7,2.3-0.2,1.6,0.7C83.6,150.1,81.8,149.7,82.4,148.7"/>
	<path class="st0" d="M114.8,150.1c0.5-0.9,1.4-1.3,2.4-1.5C116.9,149.8,115.9,150.1,114.8,150.1"/>
	<rect x="3.9" y="99.5" class="st4" width="69.3" height="24.3"/>
	<rect x="3.9" y="123.8" class="st5" width="69.4" height="23.5"/>
	<rect x="3.9" y="76.1" class="st5" width="69.4" height="23.5"/>
	<rect x="3.9" y="28.4" class="st5" width="69.4" height="23.7"/>
</g>
<path id="XMLID_163_" class="st0" d="M960,23.4c0,0,3.7-3.3,11.7-1.8c0,0,11.9,1.8,18.5-1.1c0,0,3.5-2.4,7.9-1.1
	c0,0,7.9,1.6,11.1,1.5c0,0,6.7-0.4,8.2,0.6c0,0,1.5-1.1,2.7-0.6c0,0,3.7-0.7,6.3,0.5c0,0,10.4,4.4,11.7,5.7c0,0,5,2.7,7.8,3.2
	c0,0,5.4,0.7,7.9,3.2c0,0,4.8,4.8,6.1,5.7c0,0,1.9,2.2,4.4,0.9c0,0,1.8-0.8,1.9,1.5c0,0-0.2,4,1.3,4.1c0,0,2.5-0.3,3.5,0.5
	c0,0,1.9,1.7-0.5,2.3c0,0-6.4,0.3-8.7-2.9c0,0-5.9-4.4-7.7-5.3c0,0-7.9-3.6-8.3-3.9c0,0-6.8-0.5-8.2-1.5c0,0-3.2-0.5-4.8-0.2
	c0,0-4-0.7-4.8-1.1c0,0,0.4,1.8,0.5,2.6c0,0,1.8,5.4,3.4,6.1c0,0-4,1.8-5.3,1.8c0,0-2.2,3.8-3.3,4.7c0,0-1.8,6.3-7.5,6.3l-2.3,0.3
	c0,0-1.1-0.3-1.1,1.9c0,0-0.1,7.5-0.2,9.3c0,0-0.4,7.2-1.7,10.9c0,0-1.9,6.9-2.2,7.7c0,0,0.1,1.7-2.1,1.8c0,0-6.2,0.8-7.8-0.1
	c0,0-3.2-0.4,0-1.4c0,0,3.9-1.8,6.1-1.4c0,0,0.8,0.4,1.3-0.7l1-5.8c0,0-0.6,3-2.5,2.6c0,0-7.4,1-5.2-0.4l-2.9-0.2
	c0,0-3.2-0.7,0.2-1.8c0,0,4.8-0.6,6.7-0.2c0,0,0.6,0.3,1.2-1.5c0,0,1.8-11.1,2.6-13.6c0,0,0.4-2.5-0.4-5c0,0-0.1-2.3,0.1-2.7
	c0,0-2.3,0.2-3,1.1c0,0-1.5,2.4-2.3,1.4c0,0-1-0.1-1.1-0.7c0,0-1.3,0.3-1.1-0.3l-1.1,0.1c0,0-0.5-0.5-0.5-1l-0.4-1.1
	c0,0-1.6-0.8-1.8-1.9l-0.8-2.1c0,0-1.8-2.6,2.5-5.9c0,0,0.1-3.1,2.2-2.5c0,0,2.5,0.5,2.3,2.4c0,0,2.8,1.1,3.3,3c0,0,2.6-3.8,6.1-4.4
	c0,0-0.6-1.6-2.2-1.4c0,0-1.9-0.4-1.5-2.5c0,0,0.7-4.5,5.5-5.2c0,0-1.8-2.6-1.9-3.9c0,0-10.5-3.6-12.5-4.4c-2-0.8-4.7-1-6.3-0.4
	c0,0-5,2.6-13.2,0.9l-5.5-1.5c0,0-2.5,0-3.2,1.2c0,0-1.6,1.4-3.7,0c0,0-2.5-0.4-4.8,0.4C961.9,26.4,957.1,26.3,960,23.4z"/>
<path id="XMLID_162_" class="st0" d="M481,33c0,0-5.4-1.5-5.6,3c0,0-2.8,3.1-3.1,3.5c0,0-1.3,1,0.5,1.3l0.1,1.1c0,0-0.1,1.5,1.1,0.4
	c0,0,1-1.5,1.9-0.3c0,0-0.1,2.4,0.1,4.1c0,0,0.3,1.8-1.9,0.8l-1.6-0.5c0,0-1.5,0.2,0,1.1c0,0,2,1.9,3.5,2.1l2.7,0.4
	c0,0-1.5,2.9-0.8,5c0,0-1.7,2.3-0.9,4.6l-1.5,1.4c0,0-1.4-1.3-2,1.9c-0.6,3.2-0.2,0.4-0.2,0.4l-1.2,0.8c0,0-1.1-0.3-1.4,1.4
	c0,0-1.4,0.2-1,1.6c0,0-4.7,1.7-4.3,4.3c0,0-3,4,0.1,5.3c0,0,2.6,0.9,4.3-1.2c0,0,1.5,0.3,2.5,0l0.8,0.5c0,0,4.6-0.9,6.5-1.8
	c0,0,4.5-1.7,6.4-1.7c0,0,2.5-0.6,2.9-0.9c0,0,3.8,1.1,5.2,2.4c0,0,3.9,1.2,6.1,0.6c0,0,2.3-0.5,2.3-2.1l1.5-0.5l1.5-1.2l1.2,0.4
	c0,0,0.5,6.9-0.1,9.4c0,0-2.4,1-2.4,3.1c0,2.1,0.1,0.4,0.1,0.4s-0.4,3.9,1,4c0,0,2,0.2,3.9,0c0,0,2,0.8,3.6,2.5c0,0,3.2,1.7,5.2,0.9
	c0,0,3.1-2,0.5-3.5c0,0-2.6-1.5-3.1-1.8c0,0-2.6-2-3.1-2.1c0,0,3.2-0.8-0.6-1.9c0,0,0.4-1,1.4-0.8c0,0-0.1-0.8-1.5-0.3
	c0,0-1.2,0.9-1.3-0.2c0,0,0.3-2.6,1.2-4.9c0,0,1.3-4.5,1.2-6.5l-1.9-2.8c0,0-3.1-4.9-8.6-6.9c0,0-1.8-1.6-2.7-1.4c0,0,0.2-3-2.6-2.5
	c0,0-0.1-8.2-1.2-10c0,0,1.6-3.8,0.9-5.3c0,0,1.8-0.8,1.7-2.3c0,0,1.2-1.3,1.6-1.4c0,0,2.4,2.3,2.5-3c0,0,5.8-3.5,7.3-5.2
	c0,0,2.3-1.9,3.6-2.6c0,0,3.5-1.2,4.2-2.8c0,0,4.8-5.8-3.3-9c0,0-5.3-0.2-5.6,5.8c0,0-0.2,3,2.8,4.3v1.1c0,0-3.5,2-5.1,2.8
	c0,0-2.4,0.9-3.4,1.6l-3.4,1.2c0,0-2.4-0.2-3.4,0.6c0,0-2.3,0.5-3.4,0.4c0,0-2.3,0.6-2.8,1l-0.9-0.4c0,0,0.2-5.9-2.9-7.4
	c0,0-4.7-1.6-6.4,2.6C479.7,27.8,480.1,31.8,481,33z"/>
<path id="XMLID_11_" class="st0" d="M1157.8,26c-3.9-4.5-9.2-6.1-9.2-6.1c-2.6-0.5-6.2,0-6.2,0l0.4-1.4c0.8-1.9-0.4-1.7-0.4-1.7
	c0.5-2.2-1.4-4.1-1.4-4.1c-3.6-1.7-5.3,0.9-5.3,0.9c-2.2,2.2,0,8,0,8c-0.5,1-3.1,3.5-3.1,3.5c-1.9,0.9-2.3,3.6-2.3,3.6
	c0,1.7-0.5,3.2-0.5,3.2c-0.8,0.8-0.5,1.9-0.5,1.9c-1.7-0.6-6.2-7-6.2-7c1.4-0.5,2.7-2.6,2.7-2.6c3.1-3.9-1.2-7.2-1.2-7.2
	c-5.4-3.2-8.3,1.4-8.3,1.4c-1.9,1.8-0.8,6.3-0.8,6.3c0.5,3.1,4.7,4.9,4.7,4.9c2.1,1.6,7.2,7.6,7.2,7.6c2.1,3.9,5.3,4.1,5.3,4.1
	c0.3,1.8-0.9,5.4-0.9,5.4c-1.6,2.1-0.6,5.2-0.6,5.2l1.3,0.3c0.1,1.4-2.2,3.4-2.2,3.4c-1.9,1.6-4.5,5-4.5,5l-4,6.1l-2.2,3l-0.5,0.1
	c-1.3,0.5-3,4.4-3,4.4c-1.8,0.5-2.3,2.3-2.3,2.3c-0.3,1.9,3.5,2.8,3.5,2.8l-2.5,1.4c-1,0.8,0.5,3.1,0.5,3.1c2.3,2.5,5.4-1,5.4-1
	c1.6-1.8,4.8-3.4,4.8-3.4c1.9-0.4,0.8-1.4,0.8-1.4l2.3-2.1c6-4.7,9.3-9.7,9.3-9.7c1.2-2.2,1.9-3.4,1.9-3.4l4.3-3.4
	c2.1-1.9,4.5-5.3,4.5-5.3c2.7-2.6,1.6-7.5,1.6-7.5c-0.5-1.8-0.4-2.8-0.4-2.8c0.9-1.6,0.5-4.4,0.5-4.4c-0.3-3.5,0.4-10,0.4-10
	c5.2,0.4,7.1-1.2,7.1-1.2C1159.9,28.4,1157.8,26,1157.8,26z M1132.2,64l-2.6,4.4c-0.9,1.6-3.5,4.7-3.5,4.7l-2.1,1.7l-1.4,0.3l-0.3-1
	c1-1.6,1-2.7,1-2.7c0.8-1.4,4-5.2,4-5.2c2.6-3.5,8-7.9,8-7.9C1133.5,59.9,1132.2,64,1132.2,64z"/>
<path id="XMLID_13_" class="st0" d="M807.4,32.4l-0.3-0.6c2.7-5.8,0.8-13.4,0.8-13.4l0.4-0.3l-1-3.7h-0.6l-3-6.3
	c-0.1-0.4-0.4-0.9-0.4-0.9c-0.7-0.4-1.5-3.6-1.5-3.6C801.5,2.4,800,1,800,1c-0.8-0.6-1.1-0.1-1.1-0.1c-2.8-0.4-4.2,0.6-4.2,0.6
	c-3.5,2.4-1.4,6.1-1.4,6.1c-0.8,1,1.6,2.3,1.6,2.3l-0.2,0.9l-2.7,4.4c-1.8,3.3,1,8.6,1,8.6c0.8,1.7,0.2,5.6,0.2,5.6
	c-0.4,0.7,0.2,8.9,0.2,8.9c-1.1,1.6-0.3,2.8-0.3,2.8l-1.1,1.3c-2.4,0.8-1.1,1.9-1.1,1.9c-0.8,0.3-0.3,1.9-0.3,1.9
	c-1.8,0.6-0.6,2.1-0.6,2.1c0.2,1.4-0.8,6.9-0.3,7.1l-0.1,0.8l0.3,0.2l-0.2,2c0,1.4-1.9,3.4-1.9,3.4c-1.7,1.1-2.3,3.9-2.3,3.9
	c-0.6,1.3-2.2,3.9-2.2,3.9c-0.5-0.3-1.7,3-1.7,3c-0.8,0.1-1,1.8-1,1.8c-1.8,1.2-2.1,3.9-2.1,3.9c-0.1,1.1-0.7,1.7-0.7,1.7
	c-2.2,3,0.7,4.8,0.7,4.8c2,2,3-1.4,3-1.4c-0.1-0.8,0.3-2.1,0.3-2.1c0.6-1.5,1.8-3.2,1.8-3.2l2.2,0.7c1,0.2,0.1-0.3,0.1-0.3l-2.1-0.8
	c0.3-0.5,0.2-1.6,0.2-1.6l0.1-0.4c0.7-0.8,0.8-2.3,0.8-2.3c0.7-1.7,3.6-4.9,3.6-4.9c2-1.3,3.9-5.3,3.9-5.3c1.6-0.8,2.7-3.9,2.7-3.9
	c0.6,0,1.4-0.6,1.4-0.6l0.8,1.1c-0.3,1.2,0.5,0.8,0.5,0.8l0.5,0.9c1.2,4.6,0,8,0,8c-1.7,1.8-0.6,5.1-0.6,5.1l-0.7,2.8
	c-0.5-0.3-0.2,0.9-0.2,0.9c-0.8,3.6-2.3,4.3-2.3,4.3c-1,0.4-1.9,1.6-1.9,1.6c-0.6,1.4,2.2,3.3,2.2,3.3c1.9,0.6,1.3,2,1.3,2
	c0.7,1.6,1.8,2.1,1.8,2.1c2.8,1.4,1.9-1.3,1.9-1.3c-1.7-2.2-0.9-5.8-0.9-5.8l1.3,0.6c0.2,0,0.3,0.1,0.4,0.1c0-0.1,0-0.1,0-0.2
	l-1.3-0.8l0.8-0.7c0.8-1-0.1-0.8-0.1-0.8c-0.3,0.8-0.9-0.1-0.9-0.1c0.6-1,1.1-3.9,1.1-3.9c0.5-1,0-0.9,0-0.9
	c2.6-4.5,2.5-9.1,2.5-9.1c1.4-2.5,1.4-7.5,1.4-7.5l0.5-0.2c0.7-1.7-0.4-5.3-0.4-5.3c0.8-0.8,0.3-2.6,0.3-2.6
	c0.9-0.3,0.2-1.4,0.2-1.4l-0.5-0.7c-0.2-0.8,0.4-2.6,0.4-2.6c0.3-0.7,0-1.4,0-1.4l-0.8-1.9l-0.1-1.7l0.1-0.5
	C804.3,41.5,807.4,32.4,807.4,32.4z M803.4,24.4l-0.2-1.5c0,0,1.1-0.7,0.2-2.5c0,0,0.1-3.1-2.5-4c0,0-2.2-0.3-3,1.9c0,0-1,2.4-0.8,3
	l-0.6-0.4c0,0-0.3-2.4-1.3-2.8c0,0,1.3-3.1,0.6-5.3l0.6-1.4l0.8-0.2c0,0,3.1-1.4,4.1-3c0,0,0.6-0.1,1.3,2.7l1,4.1l-0.3,0.2
	c0,0,0.8,1.6,0.5,3c0,0,0.3,0.3,0.6,1.2l0.1,3.3L803.4,24.4z"/>
<path id="XMLID_142_" class="st0" d="M1311.1,34.4c0,0,8.8-8.8,12.6-9.9c0,0,9.4,0.8,12,2.3c0,0,3,1,7.3,0.7c0,0,3-0.3,4.2,0.8
	c0,0,5.7-8.3,13-2.1c0,0,4.5,5.3,1.4,8c0,0,4.7,3.9,6.4,9.3c0,0,2.6,6.7,3.8,8.1c0,0,1.4,1.8,1.2,5.7c0,0-1.3,7.7-3.1,11.6
	c0,0-1,4.1,1.6,6.2c0.1,0.1,0.2,0.1,0.3,0.2c2.9,2,5,3.6,5,3.6s2.3,1.5,0.1,1.5l-3.1-1.6l1.1,1.7c0,0,0.2,1.4-1.4,0.7l-2.5-3
	c0,0-2.4-2.9-4.3,0l-0.6,2.1c0,0-1.8,2.4-2.1,0c0,0,1.6-2,1.3-4.8c0,0-0.8-2.7,0.3-5.4c0,0,1.2-3.8,1-6.6l0.8-7.8
	c0,0-3.6-3.3-4.6-5.8c0,0-6,0.6-6.8,1c0,0-2.4,2.5-4,4.9c0,0-5.8,9.9-11.7,12.9c0,0-3.7,4.4-11.5,3.4c0,0-4.4-0.4-6.9,2.3
	c0,0-4.5,4.1-7.4,1.9l-5.6,3.4c0,0-3.1,1.6-1.5-0.2l5.9-4c0,0-1.2-2.9,2.4-4.6l9.3-4h3.2c0,0,3.4-3.1,5-3.4c1.6-0.3,1.1-1.1,1.9-2.4
	l2-6.3c0,0-3.5,1.8-5.1,4c0,0-2,2.2-3.8,3.5c0,0-1.9,1.7-2.6,2.3c0,0-2.6,1.8-4.2,2.1c0,0-3.1,3.3-7.2,4.1c0,0-3.4,1.6-4.3,3
	c0,0,0.2,1.6-1.4,2.2l-4.6,2.1c0,0-3.2,3.3-5.3,1.7l-5.3,2.6c0,0-1.8,0.2-0.5-0.9c0,0,4.1-1.4,4.4-4.4c0,0-0.9-4,3.1-4.1
	c0,0,5.1-1.8,7.9-5.1c0,0,5.8-7.5,10.6-8.9c0,0,3.4-0.1,4.8-4.6c0,0,1.7-7,6.7-10.4c0,0,5.5-8.4,7.5-9.2c0,0-9.4-2.2-11.9-3.8
	c0,0-5.9,3.4-8.9,4.9c0,0-4.1,2.9-5.2,5.1c0,0-1.6,2.4-3.2,3.5c0,0-1.1,0.8-1.5,1.6c0,0-1.4-0.9,0.2-2.3l-3.1,2c0,0-3.1,1.8-1.9-0.4
	c0,0-2.8,1-0.6-1.4c0,0-3.3,0.5-0.6-1.8c0,0-1.8-0.5,1.4-2.3c0,0,3.3-3.1,6.1-3.2C1308.3,36.7,1310.2,35.1,1311.1,34.4z"/>
<path id="XMLID_25_" class="st0" d="M620.9,36.5l-0.1-0.9l-0.7,0.8l0.2-1.3c-0.2,1.3-1.4,0.1-1.4,0.1c-1.7-2.5-5.2-2.1-5-2.6
	l-0.6,0.5l-0.3-0.5v0.9c-2.1-0.5-4.1,2.4-4.1,2.4c-2.2,2.6-0.8,6.1-0.8,6.1c-0.8,0.2-1.3-0.4-1.3-0.4c-19.1-10-30.6,1.7-30.6,1.7
	l-4.1,3.1c-4.2,6.3-1,9.9-1,9.9c1,1.2,3.1,3.8,3.1,3.8c1.6,3.2,9.7,11.4,9.7,11.4c2.3,1.8-0.3,1.6-0.3,1.6c-2.6-0.9-7.7,0.6-7.7,0.6
	c-2.5,1-8.4,1.9-8.4,1.9l0.1,0.4l-2.7,0.4c-0.7-0.4-1.7-0.5-1.7-0.5c-1.7,0.4-4.2-0.7-4.2-0.7c-3.8,0.5-0.6,7-0.6,7
	c1.2,1.4,0.6,3.1,0.6,3.1c1.8,6.3,4.8,6.2,4.8,6.2c3.2,0.6,1.5-1.7,1.5-1.7c0-0.5-0.6-1.5-0.6-1.5c-0.8-2.5,2.4-5.1,2.4-5.1
	c1.5-0.9,1.2-1.8,1.2-1.8l4.3-0.6c0.4,2.2,4.7,4.9,4.7,4.9c1.5,0.3,2.4,3.6,2.4,3.6c2.1,3.2,6,0.4,6,0.4c-0.4-2.6-2.4-2.1-2.4-2.1
	c-1.8-4.8,1.2-7.5,1.2-7.5c0.9,0.1,4.1-0.1,4.1-0.1l4.8-1.9c1.4-0.8,1.3-4,1.3-4l5.8-3c0.1,3.9,2.9,10.4,2.9,10.4
	c1,2,1.4,4.1,1.4,4.1c-0.5,2.1,1.3,3,1.3,3c1.6,1.8,0.9,3.6,0.9,3.6l0.6,0.1l0.3,0.5c1.4,2.1,0.9-0.8,0.9-0.8
	c-0.2-3.1,3.7,0.6,3.7,0.6c1.4,1,2.2,0.1,2.2,0.1c1.6,0.4,1.6-0.3,1.6-0.3l-3-2.2l0.4-0.4l2.5,0.1c0.9-0.2,0.1-0.7,0.1-0.7
	c-1-0.1-3.8-2.7-3.8-2.7c-0.8-1.2-3.1-2.7-3.1-2.7c-1.5-1-1.6-6.9-1.6-6.9c-0.4-1.5-0.3-5.3-0.3-5.3c0.3-1.6-0.3-5.1-0.3-5.1
	c0.6-2.1-0.2-7.7-0.2-7.7c0.7-1.6,1.9-5.3,1.9-5.3c0.7-1.3-0.5-3.4-0.5-3.4l2.9-0.3c2.2-0.2,2.2-0.7,2.2-0.7c1-1.3,2.4-0.2,2.4-0.2
	l2.2,0.5c1.2,0.4,1.2-1.3,1.2-1.3c-0.2-0.6,0.6-0.6,0.6-0.6l0.3-0.8c-0.2-0.3,0.2-0.9,0.2-0.9c1.7,0.2,0.4-2.1,0.4-2.1
	c-0.4-1.3,0.5-2.1,0.5-2.1c0.2-0.6-0.5-2.6-0.5-2.6C622.3,38.3,621.5,36,620.9,36.5z M591.8,67.5l-1.3-3c0,0,3.7,0.7,4.3,1.5
	L591.8,67.5z M600.4,59.9c0,0-6.4-4.7-7.7-5.4l0.9-0.5c0,0,5.6,1.8,6.7,1.5C600.4,55.4,599.7,58.9,600.4,59.9z"/>
<path id="XMLID_125_" class="st0" d="M319.8,75.7c-0.6-3.8-4.1-1.9-4.1-1.9c-1.9,0-3.2-0.6-3.2-0.6c-3.2-2.6-8.8-5.5-8.8-5.5
	c-2.1-0.6-5.6-3-5.6-3l-9-11.7c0.4-5.8-2.3-6.2-2.3-6.2s-0.6-2.6-0.2-3.4l3.4,3.2l0.2,7c1.5,2.8,5.6,1.7,5.6,1.7
	c1.3-0.4,0.8-1.7,0.8-1.7c1.1-0.4-1.7-2.1-1.7-2.1l-1.3-0.4l0.8-4.3c0.4-3.4-2.4-5.1-2.4-5.1c-0.2-0.9-2.6-4-2.6-4l-0.6-2.3
	C287,33,278.2,27,278.2,27c-1.5-0.8-0.4-4-0.4-4l-4-1.9l-1.3-1.5l-2.4,1.5c-3.6,0.9-4.3,4.1-4.9,4c-0.6-0.2-0.6-2.3-0.6-2.3
	c0-2.8-4.7-1.9-4.7-1.9c-5.1,3,0,5.8,0,5.8c1.1,0.4,4.1,3,4.1,3c-5.6,1.7-16,7.3-16,7.3l0.4-1.9c2.6,0,3.8-6.4,3.8-6.4
	c0.9-7-2.3-6.6-2.3-6.6c-1.5,0.2-6.8-0.8-6.8-0.8c-2.4,2.6-2.3,7.3-2.3,7.3c-9,1.1-12.4,10.2-12.4,10.2c-1.3,3.8-5.5,6.8-5.5,6.8
	c-6,4-4.3,10.2-4.3,10.2l-4.9,8.8c-0.9,1.9-3.2,2.1-3.2,2.1c-2.8-1.9-10.2,1.3-10.2,1.3c-3.6,1.5-6.2,1.9-6.2,1.9
	c-2.6-1.9-5.9,0.8-5.9,0.8c-1.2,5.7,1.8,6.5,1.8,6.5c2.3,2.8,3,0.7,3,0.7c0.4-1.1-0.4-2.2-0.4-2.2c1.3-2.6,5.8-3.4,5.8-3.4h7.5
	c2.3-0.6,4.5,0.1,4.5,0.1c3.6,0.6,6.6-2,6.6-2c2.6-1.9,11.1-10.9,11.1-10.9c4.1,0.8,14.9-0.9,14.9-0.9c-2.3,4.5-0.6,8.8-0.6,8.8
	l-1.1,7.1c-1.5,2.6-0.8,4.7-0.8,4.7c2.4,0.8,12,0.8,12,0.8c1.7-0.6,0.4-1.7,0.4-1.7c-0.9-0.4-2.8-1.5-2.8-1.5
	c-1.1-1.7-2.6-1.3-2.6-1.3c0-1.5-1.3-2.6-1.3-2.6l2.8-15.6c0.8-4.3-2.1-4.5-2.1-4.5l-9.6-3.2c0,0,1.1-2.3,2.1-2.6
	c0,0-0.4-0.8,0.8-0.9l6.2-3.9l0.6-2.1l1.1,0.9l-0.4-2.6c4.9-4.3,16.9-8.1,16.9-8.1l4.1,4c-0.2,2.4,3.6,11.3,3.6,11.3
	c-1.1,0.6,0.4,4.9,0.4,4.9c-3.4-1.3-15.2,2.6-15.2,2.6c-3.6,1.9-0.8,7-0.8,7c0.4,2.3,2.4,7,2.4,7c1.1,1.5,2.6,6.8,2.6,6.8
	c-0.2,2.6-5.5,4.1-5.5,4.1c-2.8,0.8-0.8,2.3-0.8,2.3l11.1-0.2c1.3-0.4,0.4-2.8,0.4-2.8c-0.2-3.6-1.3-2.3-1.3-2.3
	c-0.8-1.5-1.5-7.1-1.5-7.1c-0.2-4.5-1.7-7.7-1.7-7.7c-0.9-2.4,1.3-1.5,1.3-1.5c3.4,0.9,13.4,1.1,13.4,1.1c0.9,1.1,3.2,0.2,3.2,0.2
	c1.5,0.6,13,9.2,13,9.2c1.7,3.2,7.9,3,7.9,3c0.9,1.9,11.5,5.1,11.5,5.1c1.7,2.6-1.3,6.6-1.3,6.6c-3.2,0.6-1.9,2.6-1.9,2.6
	c4.1,1.1,5.6-2.3,5.6-2.3c0-2.1,3.2-4.7,3.2-4.7C320.1,78.1,319.8,75.7,319.8,75.7z"/>
<g>
	<path id="XMLID_123_" class="st0" d="M426.1,61.8c-0.8-4-1,0.8-1,0.8c0,3.3-1.7,4.2-1.7,4.2c-1,1.3-0.8-1.5-0.8-1.5
		c-0.5-1.5-1.2-0.2-1.2-0.2l0.2,1.8c-0.5,1.3-0.2,2.5-0.2,2.5c1,1,0,3,0,3l-2.2,3c1.7-3.7-0.3-8.5-0.3-8.5l1.3-1.3
		c1.7-0.8-0.7-3.3-0.7-3.3c0-1.2,1.7-3.3,1.7-3.3c4-2.7,4-6,4-6c1.7-6.9-7.9-5.2-7.9-5.2c-3.2,0.5-4,4.3-4,4.3
		c-2.3-0.2-4.7-5.5-4.7-5.5c-0.5-4.2-2.5-6.9-2.5-6.9c-1.3-1.7-3-5.4-3-5.4c-1-1.3-0.7-4.8-0.7-4.8c0.2-2.8-1.2-3.8-1.2-3.8
		c-2-2.2-1.2,0.2-1.2,0.2c1.2,1.5,0.2,4.7,0.2,4.7l-0.8-0.8c-2.3-2-0.8,0.8-0.8,0.8c0.2,0.8,0.7,2.5,0.7,2.5c1.2,1,2.2,4,2.2,4
		c0.7,6.5,3.7,10.9,3.7,10.9l-1.5,3c1.8,1.7,0.3,5.2,0.3,5.2c-1.5-0.5-4.2,0.8-4.2,0.8c-1.5,0.7-3.3,0.5-3.3,0.5c-1.7-1-3.2-1-3.2-1
		c-0.2-2.3-1.8-1.2-1.8-1.2c0-1.8-2.7-1.2-2.7-1.2c-2.2-1-9.5-6.7-9.5-6.7l-3.7-3.3c-0.8-1.3-2-3.8-2-3.8c-1.7-3.3-4.7-4.8-4.7-4.8
		c-2.8-2.7-6.7-4.2-6.7-4.2c-1.8-1-3.3-3.2-3.3-3.2c1-2.8-6.4-5.7-6.4-5.7c-4.7,0.3-1.2,4.9-1.2,4.9c2,1.3,2.7,3.6,2.7,3.6
		c0.8,1.4,4.3,2.4,4.3,2.4c2,0.7,4.3,4.7,4.3,4.7c1.5,2.8,4.3,5.4,4.3,5.4c1.5,0.7,4.2,3.8,4.2,3.8c0.7,3,4.5,6,4.5,6l-0.8,6
		c-0.2,1.7,1.2,1.7,1.2,1.7l5.5,2.3l-1,1.5l-6.2-1.2c-0.5-2.3-2.5-1.5-2.5-1.5c-1.5,0.5-4,0.7-4,0.7c-3.3-1.2-5.9,1.8-5.9,1.8
		c-4.5,5.4,8.1,7.5,8.1,7.5v1.3l6.7,1.2c2.5,0.3,7.5-2.2,7.5-2.2l21.2,0.5c6.4,0.8,8,11.4,8,11.4c1.7,4.2,4.7,1.5,4.7,1.5
		c3.8-2.3,6-11.5,6-11.5c0.5-2.3,1.7-5.5,1.7-5.5C427.5,65.8,426.1,61.8,426.1,61.8z"/>
	<path id="XMLID_122_" class="st0" d="M365.1,20.8c4.8,2.2,7.7-2.7,7.7-2.7c2-4-1.8-7.2-1.8-7.2c-5-2.5-8,1.3-8,1.3
		C359.1,17.6,365.1,20.8,365.1,20.8z"/>
</g>
<path id="XMLID_28_" class="st0" d="M1254.1,67.7c-7.6-6.8-16-3.6-16-3.6l-1.9-2.5c3.7-0.1,3.2-3.2,3.2-3.2c0.7-4.1-4.1-2.5-4.1-2.5
	c-1.8,0.6-1.9-0.6-1.9-0.6c0-1.5-1.1-2.8-1.1-2.8c0.7-0.3,2.2-1.4,2.2-1.4c2.6-0.8,9.5-8.3,9.5-8.3c4.3-5.7,0-10.8,0-10.8
	c4.7,1.2,0.6-4.8,0.6-4.8l-2.8,0.6c-1-1-4.6-2.4-4.6-2.4l-1.1,0.3c-2.4-1.9-9.3-2.5-9.3-2.5c-4.4-1-7.6,2.1-7.6,2.1v-2.6
	c-4.3-6.2-9.8-2.4-9.8-2.4c-4.6,3.7-3.7,7.5-3.7,7.5l0.4,0.6c-2.8,3-1.2,4.6-1.2,4.6l2.7-2.5c0.4,0.4,1.9-0.3,1.9-0.3
	c0.8-1.2,2.1,1.2,2.1,1.2c2.6-1.5-0.1,1.9-0.1,1.9l0.7,1.2l3.2,0.6l0.4-2.1c0.8-3,3-2.1,3-2.1l-0.6,3.2c-0.4,1.8,1.5,3.3,1.5,3.3
	c-1.7,1.4-6.5,0.4-6.5,0.4c-2.8,0-4.7,2.5-4.7,2.5c0.1,1.1-0.6,1.7-0.6,1.7l-0.7,1.4l0.4,0.7c-0.8,1.5,0.1,4.3,0.1,4.3l-0.6,1.4
	l-1.7,1.7c-2.4,6.4,0.7,5.9,0.7,5.9l0.8,0.7l-1.1,1.5l-1-0.1l-2.4,2.9c-1.5-1.4-6.8-1.1-6.8-1.1c-7.5-0.3-11.1,7.5-11.1,7.5
	c-1.9,11.8,10.9,12.2,10.9,12.2c10.4,0.4,13-8.2,13-8.2c1.5-4.8-3-8.9-3-8.9l0.3-0.6l-0.4-0.8l1.2-1.7l5.8,3.9l-1.7,0.4
	c-3.9,1.8,1.8,4,1.8,4l0.7,1l1.2,0.1l0.6,1.1l5.7-1.1c-2.1,2.9,0.3,4.6,0.3,4.6c1.8,1.5,9.3,0.8,9.3,0.8l-4.4-0.6l1.5-1.1
	c-0.1,1.1,2.6,0.7,2.6,0.7v1c1.2,1.8,2.5,3.6,2.5,3.6c7.7,7.6,18.5,1.7,18.5,1.7C1259.9,75.4,1254.1,67.7,1254.1,67.7z M1202.8,65.8
	l-3.3,4.8l-1.6,0.6c0,0-1.7-1.2,0.1-0.6l0.7-0.3l3.4-4.9L1202.8,65.8z M1200.9,64.8l-2.1,2.8l-0.4-3.4
	C1199,64.1,1200.9,64.8,1200.9,64.8z M1198,64.2l0.6,3.5l-1.2,0.6l-2.3-4C1195.9,64.1,1198,64.2,1198,64.2z M1194.7,64.4l2.4,4.1
	c0,0-0.9,0-0.9,0.6l-4.2-3.7C1192,65.3,1193.5,64.2,1194.7,64.4z M1191.7,65.4l4.2,3.7c0,0-0.6,0.6-0.1,1.1l-7.1-2.2
	C1188.8,68,1190.8,65.9,1191.7,65.4z M1188.5,68.3l7.3,2.1c0,0,0.9,0.5-0.2,1.4l-8.3,0.4C1187.4,72.2,1187,69.9,1188.5,68.3z
	 M1187.6,72.7l8.1-0.7c-0.1,0.3,0.5,0.5,0.5,0.5l-5.4,4C1188.8,75.9,1187.6,72.7,1187.6,72.7z M1197,78l0-0.2
	c-0.1,0-0.4,0.1-0.7,0.2c-2.1,0.6-4.9-1.2-4.9-1.2l5-4.1c-0.1,0.5,0.7,0.2,0.7,0.2l-0.8,5c0,0,0.4-0.1,0.7-0.2l0.4-4.4
	c0,0,0-0.1,0-0.1l0,0.1c0.1,0.2,0.5,0.5,0.5,0.5c0.3,1.1,0.9-0.1,0.9-0.1l2.7,3C1200.2,78.1,1197,78,1197,78z M1202.1,76.4l-2.8-3
	l0.3-0.5l4.9,1.6L1202.1,76.4z M1204.6,74.2l-4.9-1.6l0.1-0.1l0.6-0.8l5.6-0.3C1205.9,72.6,1204.6,74.2,1204.6,74.2z M1206,70.9
	l-5.5,0.6l0.4-0.6l3-4.2C1203.9,66.7,1206.1,67.8,1206,70.9z M1222.5,71.4l-0.9-0.4c-0.5-0.6,0.4-0.4,0.4-0.4l0.9,0.6
	C1223.3,71.7,1222.5,71.4,1222.5,71.4z M1222.1,72.1l-0.9-0.3c-0.6-0.6,0.3-0.6,0.3-0.6l1,0.4C1222.9,72.1,1222.1,72.1,1222.1,72.1z
	 M1210.1,45.9c0,0,3.7-2.1,3.2-4.6c0,0,4.3,2.2,5.9,2.1c0,0-2.1,7.2-5.5,10.6c0,0-2.6,0.3-4,1.2c0,0-0.8,0.1-0.7-1.8
	c0,0,0.6-3.2,0-2.9l-0.1-1.7L1210.1,45.9z M1217.4,69.5l-0.3-0.6l1.4-0.8l1,1.1L1217.4,69.5z M1217.3,64.2l-1.7,0.1l-7.7-4.8
	l11.5,2.4l0.3,1.1C1219.6,62.9,1218,63.5,1217.3,64.2z M1220.7,57c0,0-1,2.1-0.8,2.8l-5-1l-1,0.6l-2.5-0.4c0,0-0.8-1.7,1.4-1.7
	c0,0,3.5-1.7,5.5-4.1l3.9-3.9c0,0-0.6,2.1-0.4,3.7C1221.8,52.9,1221.8,55,1220.7,57z M1221.1,72l1.1,0c0.6,0.3-0.1,0.4-0.1,0.4h-1.2
	C1220.3,72.4,1221.1,72,1221.1,72z M1221.1,73l1.1-0.2c0.5,0.1,0.1,0.4,0.1,0.4l-0.9,0.3C1220.7,73.6,1221.1,73,1221.1,73z
	 M1221.6,73.7l0.8-0.4c0.7-0.3,0.3,0.3,0.3,0.3l-0.6,0.5C1221.1,74.5,1221.6,73.7,1221.6,73.7z M1222.2,74.4l0.5-0.5
	c0,0,0.8-0.6,0.6,0.2l-0.4,0.5C1222.9,74.6,1221.9,75.2,1222.2,74.4z M1224,74.9c0,0-0.6,0.7-0.8,0l0.3-0.7c0,0,0.4-0.9,0.5,0
	L1224,74.9z M1226.7,36.1c0.4,1,1.9-0.3,1.9-0.3c0.4,0.1,1.1,0,1.1,0c0.4-0.6,1.9,0.6,1.9,0.6l-7.3,7.6L1226.7,36.1z M1225,64.2
	l1.5-1.1l2.5,0.4l-3.6,5.3l-0.6-0.4C1224.9,68.3,1225.7,65.5,1225,64.2z M1226.3,60.8l0.7-2.4l2.6,3.2L1226.3,60.8z M1224.4,75
	l0-0.7c0,0,0-0.7,0.5-0.1l0.3,0.6C1225.2,74.7,1224.9,75.6,1224.4,75z M1225.6,74.8l-0.4-0.7c0,0-0.2-0.9,0.4-0.3l0.5,0.6
	C1226.1,74.3,1226.2,75.1,1225.6,74.8z M1226.6,74.2l-0.4-0.3c-0.8-0.8,0.4-0.4,0.4-0.4l0.6,0.4
	C1227.4,74.5,1226.6,74.2,1226.6,74.2z M1227.5,73.5c-0.3,0.4-0.5-0.1-0.5-0.1l0.1-0.3C1227.7,73,1227.5,73.5,1227.5,73.5z
	 M1231.4,69.3h-5l3.5-5l2.9,2.6L1231.4,69.3z M1252.6,72.3l-8.4,0.5l0.3-0.5l0-0.4c0,0,3.6,0.2,4,0.1l3.8-0.4L1252.6,72.3z
	 M1252.2,71.3l-3.1,0.3l2.4-1.4L1252.2,71.3z M1251.4,70l-3.1,1.8l-2.2,0.1l-0.2-0.4l-0.9,0v-0.2l1.2-0.1v-0.3l1.7-1.1l2.8-0.5
	L1251.4,70z M1248.5,67.5c0,0,0.7,0.4,0.9,0.6l-3.7,2.6L1248.5,67.5L1248.5,67.5z M1248.1,67.4l-2.3,2.7l1.4-3.1L1248.1,67.4z
	 M1243.8,66.4l-0.4,2l-0.5-2.1L1243.8,66.4z M1242.6,66.4l0.9,3.2l-0.8,0l-1.3-3.1C1241.7,66.2,1242.6,66.4,1242.6,66.4z M1241,66.5
	l1.5,3.2c0,0-1.6,0.3-2.2-0.6c0,0,0.7-0.1,0.3-0.8l-0.7-1.4l-0.1-0.1C1239.6,66.9,1240.5,66.4,1241,66.5z M1241.9,73.4
	c-0.2,0.1-0.3,0.3-0.3,0.3c-0.6,0.9-2.4-1.3-2.4-1.3l2.2,0.4C1242.5,73.1,1241.9,73.4,1241.9,73.4z M1238.8,71.2
	c0.3-0.5,1.6,0.2,1.6,0.2c0.4-0.5,0.9,0.1,0.9,0.1v1.1c-0.6,0-3.4-1.1-3.4-1.1C1236.7,70.6,1238.8,71.2,1238.8,71.2z M1235.7,72.2
	c0.9-0.8,1.8,0,1.8,0l1.9,1.7l-3.6-0.6C1234.4,73.2,1235.7,72.2,1235.7,72.2z M1233.8,74.5c3.5,0.5,3.1,0.9,3.1,0.9l-2.9,0
	C1233.2,75.3,1233.8,74.5,1233.8,74.5z M1234.3,75.9l4.8-0.1l-2.8,2.2C1235.9,77.9,1234.3,75.9,1234.3,75.9z M1238.7,79.2
	L1238.7,79.2C1238.7,79.1,1238.7,79.1,1238.7,79.2c-1.1-0.3-1.8-0.9-1.8-0.9l2.7-2.5l0.1-0.1l2.3,0.2L1238.7,79.2
	C1239.5,79.3,1238.7,79.2,1238.7,79.2z M1241.5,79.8l-2.2-0.6l2.4-2.6L1241.5,79.8z M1243.4,79.9l-1.5,0.1l0.4-3.8h1.3L1243.4,79.9z
	 M1243.5,68.5l0.7-2.1c0,0,0.9-0.1,1.2,0.1l-1.8,2.6L1243.5,68.5z M1245.8,66.6c0,0,0.9,0.3,1.2,0.4l-1.5,3.5l-0.9,0l-0.5-0.6
	l-0.3-0.1L1245.8,66.6z M1246,79.5c-0.8,0.4-2.2,0.4-2.2,0.4l0-3.6l2.3,3.2C1246.1,79.4,1246.8,79.1,1246,79.5z M1246.4,79.3
	l-2.6-3.8v-0.1l5.4,2.6C1248.7,78.8,1246.4,79.3,1246.4,79.3z M1249.7,77.9l-4.5-2.6l0.1-0.1l6.7,0.4
	C1251.9,76.1,1249.7,77.9,1249.7,77.9z M1252.1,75.3l-6.7-0.4l0.2-0.5l-0.7,0l0.1-0.6l-0.3-0.2l-0.1-0.6l7.9-0.5
	C1252.6,72.5,1252.9,74.5,1252.1,75.3z"/>
<path id="XMLID_31_" class="st0" d="M926.8,35c-0.8-5.1-5.9-4.4-5.9-4.4v-5.2c-2.5-5.4-8.1-0.5-8.1-0.5c-1.3,5.1,0.8,7,0.8,7
	c3.3,0.2,1.1,1.1,1.1,1.1l-2.5,2.1l-2.3,0.2l-2,3.9l-3.6-5.4l4.7-0.2l0.3-1c2.9-3.6-1.8-3.4-1.8-3.4l-3.8,0.8l-3.6-2.5l-3.3-4.1
	l-3.9,0.7l0.8-1.5l0.3-3.3c0.3-3.8-4.6-0.5-4.6-0.5h-6.1c-3.1-0.6-7.4-0.4-7.4-0.4c-2.1-2.1-6.4-2-6.4-2l0.3-1.3
	c3.3-2-3.3-6.2-3.3-6.2c-5.1-1.3-5.7,3.1-5.7,3.1c0.2,2,0,4.8,0,4.8c-4.3,1.1-8.4,6-8.4,6c-1.5,3.3-2,11.3-2,11.3
	c1.6,5.2,9.2,7.5,9.2,7.5l0.8,2.6l-2.1,4.1l1.5,0.7l1.1-1.6l0.8,1.8c-0.3,10,4.3,8.7,4.3,8.7c6.7-1.5,15.4,0,15.4,0l3.6,3.8
	c3.6,1.6,0-3.6,0-3.6c-2-1.1-1.5-5.1-1.5-5.1c-0.8-4.4-5.1-2.1-5.1-2.1c-1.8,1.5-5.6-0.2-5.6-0.2c-5.7-5.2,0.8-9.3,0.8-9.3
	c4.1-4.1,10.3-1.6,10.3-1.6c2.8,2.1,6.9-0.5,6.9-0.5c3.9-4.1,7.4-3.1,7.4-3.1c-0.3,4.9,3.4,11.1,3.4,11.1c-3.4,2.3-9.7,1-9.7,1
	l-0.2,1.5c2.6,1.5,9.7-0.8,9.7-0.8l-2.9,4.6l-0.2,2.3l2.6,0.2l0.2-1.5l0.8,0.3c-2.1,5.6,0,21,0,21c2.1,5.9,1.8,11.1,1.8,11.1
	c1,5.2,0.2,7.9,0.2,7.9c2.3,0.2,2.9-1.5,2.9-1.5c-0.2-1.6,0.5-3.4,0.5-3.4c1-2.3-0.3-3.1-0.3-3.1c-0.5-1.3,0-3.3,0-3.3
	c2.9-5.7,2-15.7,2-15.7c-0.3-4.8,6.2-11.8,6.2-11.8c2.8-3.6,6.8-9.3,6.8-9.3C928.2,45.3,926.8,35,926.8,35z M855.6,30.7
	c0,0,3.8,3.3,4.6,7C860.2,37.8,854.9,35.3,855.6,30.7z M892.8,31.4c0,0-2.6-1-4.9,1.5c0,0-10,0.8-13.1-3.3l1.5-2.6l-1-1l-2.5,2.5
	c0,0-2-1.8-0.8-4.9c0,0,13.6,2,17,0.7l4.9,5.1C893.9,29.3,895.5,31.4,892.8,31.4z"/>
<path id="XMLID_35_" class="st0" d="M1447.7,64.9l12.8,12.7c2.4,2.6,15.3,12.6,15.3,12.6l-0.2-2.7l2.8-0.6
	c-2-1.4-13.6-12.9-13.6-12.9c-0.9-1.5-0.9-7.2-0.9-7.2l-0.6-0.1l-0.3-3.6c-0.1-2.1-1.9-4.6-2.8-5.7c0.2,0.2,0.3,0.3-0.1-0.4
	c-0.8-1.3-0.6-6.2-0.6-6.2l0.5-0.1l0.6,1.4c0.2,0.7,1.1,0,1.1,0c0.4,0.3,0.7-0.6,0.7-0.6c0.8-2.4-0.6-3.3-0.6-3.3l-0.5-1.5l-0.5-0.1
	l-1-1.9c-1.2-6.2-2.5-6.4-2.5-6.4c-0.9-0.6-1.2-1.9-1.2-1.9c-0.6-2.3-1.1-3-1.1-3c-1.2-0.5-1.8-1.7-1.8-1.7
	c-1.6-3.6-4.6-4.3-4.6-4.3l-3.1-0.7c0.9-4.7-1.3-6-1.3-6c-5.7-2.5-7.3,2.4-7.3,2.4c-0.7,1.9-0.4,2.5-0.4,2.5l0.7,1.5
	c-0.1,1.1,0,2.4,0,2.4c-2,3.1,0,5.5,0,5.5v1.7l1.1,0.8c-0.7,1.1,0.4,3.4,0.4,3.4c-0.6,0.4-0.7,2.9-0.7,2.9c-0.4,2.2-1.5,3.6-1.5,3.6
	l-1.1,1.2c-1,0.1-2.1,1.2-2.1,1.2c-1.5,2.7,2.5,2.9,2.5,2.9c1.1,0.2,0.6-1.6,0.6-1.6l1.9-1.1l5.6,10.4c-1.6,1.8-1.1,8.6-1.1,8.6
	c-0.8-0.1-0.5,0.3-0.5,0.3c1.8,3.7-1.8,3.6-1.8,3.6c-6.2-4.9-12.5-13-12.5-13c-2-2.2-6.4-13.1-6.4-13.1l-6.4-1.1l-0.4,0.6
	c2.8,8.6,9.6,16.9,9.6,16.9c1.4,2.1,17.1,16.2,17.1,16.2c2.7,2.7,16.8,13,16.8,13l0.5-0.9l1.7-0.1l0.3-0.6l-15.2-13.4
	c0.4-0.5,0.3-2.6,0.3-2.6c-0.1-2.3,0.7-4.1,0.7-4.1c0.6-1.2-0.2-1.7-0.2-1.7l0.1-1.2C1447.3,67,1447.7,64.9,1447.7,64.9z M1451.5,49
	c0,0,0.6-1.1,1.1,0c0,0,2.1,6.7,2.8,7.8c0,0,1,2,1.9,2.9c0,0,0.8,1.2,1,2.7c0,0,1,3.8,1.7,5.3l0.2,1.9c0,0-7.4-7.2-11.3-13.5
	L1451.5,49z M1445.1,43.5l-0.5,3.3c0,0-0.7-1.5-2.1-1.2l-2.6,0.6c0,0,2.2-2.6,2.3-3.7c0,0,1.2,0.3,2-0.2
	C1444.3,42.4,1445.2,41.8,1445.1,43.5z"/>
<path id="XMLID_37_" class="st0" d="M740.5,36.8c-0.8-1.3-2.7-3.3-2.7-3.3c0.2-4-1-6.8-1-6.8c-1.1-2.9-0.4-6.6-0.4-6.6
	c1.7-1.8,0.4-4.4,0.4-4.4l0.9-2.6c0.4-1,2.3-3.3,2.3-3.3c0.4-1.3-2.2-0.5-2.2-0.5c-2.4-0.1-3.8,2.7-3.8,2.7l-2.2,3.9
	c-0.8-0.2-2.4,0.4-2.4,0.4c-1.7,0.6-6.7,1.2-6.7,1.2c-4.3-0.2-6.3,1.2-6.3,1.2c-2.2,1.4-7.8,1.3-7.8,1.3c-2.3-0.3-6.9-0.3-6.9-0.3
	l0.1-2.1c1.4-6.4-3.3-7.8-3.3-7.8c-4.2-1.9-8,1.1-8,1.1c-1.8,1.8-0.3,3.2-0.3,3.2c0.3,1.5-0.4,2.6-0.4,2.6c-1.3,1.2,0.2,1.4,0.2,1.4
	c0.3,0.3,0.5,2.4,0.5,2.4c-0.3,1.4,0.6,1.1,0.6,1.1c1.6,0.5,2.3,1.7,2.3,1.7c-1.3-0.4-1.8-0.1-5,0c-3.1,0.1-6.2-1.3-6.2-1.3
	c-3.6-2.1-7.6-2.3-7.6-2.3c-1.7-0.1-6.2-0.6-6.2-0.6c-1.5-0.8-3.2-0.6-3.2-0.6c-1.5-0.1-5.6-0.6-5.6-0.6c-4.6-0.4-0.3,1-0.3,1
	c1.6,1.4,5.8,2.3,5.8,2.3c1.4-1,3.8,0.5,3.8,0.5c2.1,1.3,10.1,3.1,10.1,3.1c0.6,0.5,5.5,2.5,5.5,2.5c3.2,1.8,5.4,2.2,5.4,2.2
	l1.7,2.5c0.1,4.9,1.8,4.5,1.8,4.5c1.5,3,2.2,8,2.2,8c0.9,0.3,4.5-0.5,4.5-0.5c0.8,0.5,2.5,2.9,2.5,2.9c1.2,2.9,4.7,5.4,4.7,5.4
	c-0.3,3.5,2.2,11.1,2.2,11.1c1.2,3.5,1.3,6.6,1.3,6.6c-0.4,7.4,0.6,5.8,0.6,5.8l-0.2,12.3c-0.4,2.7-6.7,4.3-6.7,4.3
	c-1.6-0.4-1.7,0.4-1.7,0.4c1.8,1.4,5.4,0.5,5.4,0.5c1.7-0.5,4.6,0.1,4.6,0.1c3.3,1.1,2.9-1.8,2.9-1.8c-0.5-1.1-0.5-2.9-0.5-2.9
	c-0.4-2.3,0.5-6.4,0.5-6.4c1.4-3.5,1.5-8.8,1.5-8.8c2.3-1.2,2.2-2.1,2.2-2.1c-1.8-1.9-1.9-12.4-1.9-12.4c-0.2-3.3,0.3-9.8,0.3-9.8
	l13.5-4c4.7-1.5,8.2-6.2,8.2-6.2C741.5,36.9,740.5,36.8,740.5,36.8z M732.2,34.8c0,0-2.1,0.5-1.4,2.2c0,0-9.7,0.8-12.6,0.6
	c0,0-2.8-2.2-8.1-2.4l-2.2-0.9c0,0,0.6-2.5-1.1-3.2l0.2-5.3c0,0,7.6-1.9,9.6-2.9c0,0,2.3-1.1,4.1-1.2c0,0,6.3-1.8,7.8-2.7
	c0,0,2.1-1.6,2.1,0.1c0,0-0.2,0.9,1.4,0.8c0,0,0.8-0.6,0.9,1.6C732.9,21.5,731.8,33.3,732.2,34.8z"/>
</svg>
